<svg xmlns="http://www.w3.org/2000/svg" viewBox="0 0 900 900" role="img" aria-labelledby="title desc">
  <title id="title">抽象个人头像</title>
  <desc id="desc">由柔和色块和圆形头像轮廓组成的个人网站视觉资产。</desc>
  <defs>
    <linearGradient id="bg" x1="0" x2="1" y1="0" y2="1">
      <stop offset="0" stop-color="#f4e2c3"/>
      <stop offset="0.48" stop-color="#d7eee9"/>
      <stop offset="1" stop-color="#f2b0ad"/>
    </linearGradient>
    <linearGradient id="shape" x1="0" x2="1" y1="1" y2="0">
      <stop offset="0" stop-color="#0c7c74"/>
      <stop offset="1" stop-color="#d29332"/>
    </linearGradient>
    <filter id="soft" x="-20%" y="-20%" width="140%" height="140%">
      <feGaussianBlur stdDeviation="18"/>
    </filter>
  </defs>
  <rect width="900" height="900" fill="url(#bg)"/>
  <circle cx="168" cy="190" r="112" fill="#c95f68" opacity=".72" filter="url(#soft)"/>
  <circle cx="770" cy="186" r="142" fill="#0c7c74" opacity=".24" filter="url(#soft)"/>
  <path d="M98 725c136-184 252-271 399-269 159 2 250 104 316 269v175H98z" fill="#18201d" opacity=".92"/>
  <circle cx="454" cy="330" r="152" fill="#f9d8bd"/>
  <path d="M313 319c18-115 93-183 186-174 82 8 143 69 152 168-65-54-129-70-193-49-42 14-89 24-145 55z" fill="url(#shape)"/>
  <path d="M338 362c45 45 88 66 150 66 63 0 110-22 151-68-8 89-76 151-151 151-80 0-142-61-150-149z" fill="#f9d8bd"/>
  <circle cx="395" cy="340" r="14" fill="#18201d"/>
  <circle cx="516" cy="340" r="14" fill="#18201d"/>
  <path d="M412 404c34 24 68 24 102 0" fill="none" stroke="#18201d" stroke-width="14" stroke-linecap="round"/>
  <path d="M156 724c92-89 188-130 299-130 125 0 226 45 302 130" fill="none" stroke="#49b8ae" stroke-width="28" stroke-linecap="round" opacity=".7"/>
  <path d="M705 620l92-26 34 89-89 33z" fill="#efbd68" opacity=".86"/>
  <path d="M104 565l87-83 75 78-91 84z" fill="#ffffff" opacity=".42"/>
</svg>
